<?xml version="1.0" encoding="iso-8859-1"?>
<!-- Uploaded to: SVG Repo, www.svgrepo.com, Generator: SVG Repo Mixer Tools -->
<svg fill="#000000" version="1.1" id="Layer_1" xmlns="http://www.w3.org/2000/svg" xmlns:xlink="http://www.w3.org/1999/xlink" 
	 viewBox="0 0 512 512" xml:space="preserve">
<g>
	<g>
		<path d="M271.209,109.571V0h-30.417v109.571l-115.834,88.83V512h262.084V198.401L271.209,109.571z M271.209,219.774v-17.324
			c4.813,4.231,7.86,10.427,7.86,17.324c0,12.72-10.348,23.068-23.068,23.068c-12.719,0-23.068-10.348-23.068-23.068
			c0-6.898,3.047-13.093,7.86-17.324v17.324H271.209z M356.625,481.583h-201.25V213.406l85.417-65.502v20.602
			c-22.104,6.569-38.277,27.062-38.277,51.271c0,29.492,23.994,53.486,53.486,53.486c29.492,0,53.486-23.993,53.486-53.486
			c0-24.209-16.172-44.702-38.277-51.271v-20.602l85.416,65.502V481.583z"/>
	</g>
</g>
<g>
	<g>
		<rect x="190.432" y="304.668" width="131.128" height="30.417"/>
	</g>
</g>
<g>
	<g>
		<rect x="190.432" y="355.364" width="131.128" height="30.417"/>
	</g>
</g>
<g>
	<g>
		<rect x="190.432" y="406.059" width="131.128" height="30.417"/>
	</g>
</g>
</svg>